<svg xmlns="http://www.w3.org/2000/svg" xmlns:xlink="http://www.w3.org/1999/xlink" viewBox="0 0 300 300" width="40" height="40">
<radialGradient id="SVGID_1_" cx="57.3882" cy="57.021" r="264.5797" gradientUnits="userSpaceOnUse">
    <stop offset="0" style="stop-color:#9DD5F6"/><stop offset="0.0711" style="stop-color:#98D3F5"/>
    <stop offset="0.1575" style="stop-color:#89CEF3"/><stop offset="0.2516" style="stop-color:#70C6EF"/>
    <stop offset="0.3514" style="stop-color:#4EBBEA"/><stop offset="0.4546" style="stop-color:#23ADE3"/>
    <stop offset="0.5" style="stop-color:#0DA6E0"/><stop offset="1" style="stop-color:#2E77BC"/>
</radialGradient>
<path fill="url(#SVGID_1_)" d="M289.584,7.598H7.639v282.966h281.945v-93.386c1.12-1.619,1.673-3.69,1.673-6.222c0-2.898-0.553-4.693-1.673-6.205"/>
<path fill="#FFFFFF" d="M33.053,130.042l-5.424-13.217l-5.393,13.217 M152.543,124.779c-1.089,0.661-2.377,0.683-3.92,0.683h-9.627v-7.364h9.758c1.381,0,2.822,0.062,3.758,0.598c1.028,0.483,1.664,1.511,1.664,2.931C154.176,123.076,153.571,124.242,152.543,124.779z M221.221,130.042l-5.484-13.217l-5.454,13.217H221.221z M93.201,144.348h-8.124l-0.03-25.966l-11.491,25.966h-6.958l-11.521-25.989v25.989H38.959l-3.045-7.395h-16.5l-3.076,7.395H7.731l14.191-33.154h11.774l13.478,31.39v-31.39h12.934l10.371,22.491l9.527-22.491h13.194V144.348z M125.58,144.348H99.107v-33.154h26.473v6.904h-18.548v5.976h18.103v6.796h-18.103v6.621h18.548V144.348z M162.906,120.123c0,5.286-3.528,8.017-5.584,8.837c1.734,0.66,3.215,1.826,3.92,2.792c1.119,1.649,1.312,3.122,1.312,6.083v6.513h-7.993l-0.03-4.181c0-1.995,0.191-4.864-1.251-6.459c-1.158-1.166-2.923-1.419-5.776-1.419h-8.507v12.059h-7.924v-33.154h18.227c4.05,0,7.034,0.107,9.596,1.588C161.403,114.263,162.906,116.425,162.906,120.123z M175.588,144.348h-8.086v-33.154h8.086V144.348z M269.396,144.348h-11.23l-15.021-24.884v24.884h-16.139l-3.084-7.395H207.46l-2.992,7.395h-9.273c-3.852,0-8.729-0.852-11.491-3.667c-2.785-2.815-4.234-6.628-4.234-12.657c0-4.917,0.866-9.412,4.272-12.964c2.562-2.646,6.574-3.866,12.035-3.866h7.672v7.104h-7.511c-2.892,0-4.525,0.43-6.098,1.964c-1.351,1.396-2.278,4.035-2.278,7.51c0,3.552,0.706,6.113,2.179,7.786c1.22,1.312,3.437,1.71,5.523,1.71h3.559l11.169-26.073h11.874l13.417,31.359v-31.359h12.066l13.93,23.09v-23.09h8.117V144.348z"/>
</svg>
